# Blender v2.66 (sub 1) OBJ File: 'scene.blend'
# www.blender.org
mtllib ceilings.mtl
o Cube.005_Cube.007
v -4.010859 4.829147 0.601899
v -4.010859 4.829147 0.723515
v -4.128716 4.799142 0.723515
v -4.128716 4.799142 0.601899
v -4.040864 4.947004 0.601899
v -4.040864 4.947004 0.723515
v -4.158720 4.917000 0.723515
v -4.158720 4.917000 0.601899
v -9.938614 3.320019 0.723514
v -9.938614 3.320019 0.601898
v -9.968618 3.437876 0.723514
v -9.968618 3.437876 0.601898
v -4.010859 4.829147 -10.622866
v -4.010859 4.829147 -10.501249
v -4.128716 4.799142 -10.501249
v -4.128716 4.799142 -10.622866
v -4.040864 4.947004 -10.622866
v -4.040864 4.947004 -10.501249
v -4.158721 4.917000 -10.501249
v -4.158721 4.917000 -10.622866
v -9.938615 3.320019 -10.501251
v -9.938615 3.320019 -10.622868
v -9.968619 3.437876 -10.501251
v -9.968619 3.437876 -10.622868
v -4.010859 4.829147 -7.490373
v -4.010859 4.829147 -7.368757
v -4.128716 4.799142 -7.368757
v -4.128716 4.799142 -7.490373
v -4.040864 4.947004 -7.490373
v -4.040864 4.947004 -7.368757
v -4.158721 4.917000 -7.368757
v -4.158721 4.917000 -7.490373
v -9.938615 3.320019 -7.368759
v -9.938615 3.320019 -7.490374
v -9.968619 3.437876 -7.368759
v -9.968619 3.437876 -7.490374
v -3.928833 4.829147 -8.952265
v -3.928833 4.829147 -9.073881
v -3.810976 4.799142 -9.073881
v -3.810976 4.799142 -8.952265
v -3.898828 4.947004 -8.952265
v -3.898828 4.947004 -9.073881
v -3.780971 4.917000 -9.073881
v -3.780971 4.917000 -8.952265
v 1.998924 3.320019 -9.073881
v 1.998924 3.320019 -8.952265
v 2.028929 3.437876 -9.073881
v 2.028929 3.437876 -8.952265
v -3.928833 4.829147 -5.428210
v -3.928833 4.829147 -5.549827
v -3.810976 4.799142 -5.549827
v -3.810976 4.799142 -5.428210
v -3.898828 4.947004 -5.428210
v -3.898828 4.947004 -5.549827
v -3.780971 4.917000 -5.549827
v -3.780971 4.917000 -5.428210
v 1.998924 3.320019 -5.549827
v 1.998924 3.320019 -5.428210
v 2.028929 3.437876 -5.549827
v 2.028929 3.437876 -5.428210
v -4.010859 4.829147 -3.509497
v -4.010859 4.829147 -3.387881
v -4.128716 4.799142 -3.387881
v -4.128716 4.799142 -3.509497
v -4.040864 4.947004 -3.509497
v -4.040864 4.947004 -3.387881
v -4.158721 4.917000 -3.387881
v -4.158721 4.917000 -3.509497
v -9.938615 3.320019 -3.387882
v -9.938615 3.320019 -3.509499
v -9.968619 3.437876 -3.387882
v -9.968619 3.437876 -3.509499
v -3.928832 4.829147 -1.316814
v -3.928832 4.829147 -1.438430
v -3.810975 4.799142 -1.438430
v -3.810975 4.799142 -1.316814
v -3.898827 4.947004 -1.316814
v -3.898827 4.947004 -1.438430
v -3.780970 4.917000 -1.438430
v -3.780970 4.917000 -1.316814
v 1.998924 3.320019 -1.438430
v 1.998924 3.320019 -1.316814
v 2.028929 3.437876 -1.438430
v 2.028929 3.437876 -1.316814
v -4.050192 4.799506 2.801595
v -4.050193 4.799506 -12.716690
v -3.889918 4.799506 -12.716690
v -3.889918 4.799506 2.801595
v -4.050192 4.959781 2.801595
v -4.050193 4.959781 -12.716690
v -3.889918 4.959781 -12.716690
v -3.889918 4.959781 2.801595
v -10.052588 0.024979 2.905019
v -10.052588 0.024979 2.692016
v -9.839584 0.024979 2.692016
v -9.839584 0.024979 2.905019
v -10.052588 3.189398 2.905019
v -10.052588 3.189398 2.692016
v -9.839584 3.189398 2.692016
v -9.839584 3.189398 2.905019
v -10.052588 3.396081 2.905019
v -10.052588 3.396081 2.692016
v -9.839584 3.396081 2.692016
v -9.839584 3.396081 2.905019
v -10.052588 3.189398 -12.624897
v -9.839585 3.189398 -12.624897
v -10.052588 3.396081 -12.624897
v -9.839585 3.396081 -12.624897
v -10.052588 3.189398 -12.849195
v -9.839585 3.189398 -12.849195
v -10.052588 3.396081 -12.849195
v -9.839585 3.396081 -12.849195
v -10.052588 0.025222 -12.624897
v -9.839585 0.025222 -12.624897
v -10.052588 0.025222 -12.849195
v -9.839585 0.025222 -12.849195
v 1.886182 0.024979 2.905020
v 1.886182 0.024979 2.692016
v 2.099186 0.024979 2.692016
v 2.099186 0.024979 2.905020
v 1.886182 3.189398 2.905020
v 1.886182 3.189398 2.692016
v 2.099186 3.189398 2.692016
v 2.099186 3.189398 2.905020
v 1.886182 3.396081 2.905020
v 1.886182 3.396081 2.692016
v 2.099186 3.396081 2.692016
v 2.099186 3.396081 2.905020
v 1.886182 3.189398 -12.622858
v 2.099186 3.189398 -12.622858
v 1.886182 3.396081 -12.622858
v 2.099186 3.396081 -12.622858
v 1.886182 3.189398 -12.849663
v 2.099186 3.189398 -12.849663
v 1.886182 3.396081 -12.849663
v 2.099186 3.396081 -12.849663
v 1.886182 0.017578 -12.622858
v 2.099186 0.017578 -12.622858
v 1.886182 0.017578 -12.849663
v 2.099186 0.017578 -12.849663
v 1.886182 3.396081 -4.857720
v 1.886182 3.396081 -5.073122
v 1.886182 3.189398 -5.073122
v 1.886182 3.189398 -4.857720
v 2.099186 3.396081 -4.857720
v 2.099186 3.396081 -5.073122
v 2.099186 3.189398 -4.857720
v 2.099186 3.189398 -5.073122
v 1.886182 0.024435 -5.073122
v 1.886182 0.024435 -4.857720
v 2.099186 0.024435 -4.857720
v 2.099186 0.024435 -5.073122
v -10.052588 3.396081 -6.590274
v -10.052588 3.396081 -6.857465
v -10.052588 3.189398 -6.857465
v -10.052588 3.189398 -6.590274
v -9.839584 3.396081 -6.590274
v -9.839585 3.396081 -6.857465
v -9.839584 3.189398 -6.590274
v -9.839585 3.189398 -6.857465
v -10.052588 0.000904 -6.857465
v -10.052588 0.000904 -6.590274
v -9.839584 0.000904 -6.590274
v -9.839585 0.000904 -6.857465
v -3.976702 4.790167 -12.849428
v -3.976702 4.996851 -12.849428
v -3.976702 4.790167 -12.623878
v -3.976702 4.996851 -12.623878
v -3.976701 4.791282 2.692016
v -3.976701 4.791282 2.905019
v -3.976701 4.997966 2.692016
v -3.976701 4.997966 2.905019
vt 0.299330 0.542187
vt 0.299317 0.546251
vt 0.295369 0.546238
vt 0.295381 0.542175
vt 0.051577 0.746559
vt 0.051580 0.742495
vt 0.055644 0.742498
vt 0.055641 0.746562
vt 0.028525 0.737143
vt 0.024462 0.737130
vt 0.025060 0.542175
vt 0.029123 0.542187
vt 0.047356 0.546242
vt 0.047353 0.542178
vt 0.051416 0.542175
vt 0.051420 0.546238
vt 0.028513 0.741098
vt 0.024449 0.741085
vt 0.410316 0.737130
vt 0.414380 0.737143
vt 0.414368 0.741098
vt 0.410304 0.741085
vt 0.144331 0.546250
vt 0.144318 0.542187
vt 0.148266 0.542175
vt 0.148279 0.546238
vt 0.047513 0.746562
vt 0.051738 0.542175
vt 0.055801 0.542178
vt 0.410914 0.542175
vt 0.414978 0.542187
vt 0.299342 0.546251
vt 0.303278 0.542175
vt 0.303290 0.546238
vt 0.043128 0.746559
vt 0.043132 0.742495
vt 0.047195 0.742498
vt 0.047192 0.746562
vt 0.405032 0.737143
vt 0.400969 0.737130
vt 0.401567 0.542175
vt 0.405630 0.542187
vt 0.361160 0.546242
vt 0.361157 0.542178
vt 0.365220 0.542175
vt 0.365223 0.546238
vt 0.405020 0.741098
vt 0.400957 0.741085
vt 0.577693 0.424861
vt 0.573629 0.424873
vt 0.573617 0.420918
vt 0.577680 0.420906
vt 0.140358 0.542187
vt 0.140345 0.546251
vt 0.136397 0.546238
vt 0.136410 0.542175
vt 0.365381 0.746559
vt 0.361317 0.746562
vt 0.043289 0.542175
vt 0.578291 0.619816
vt 0.574227 0.619829
vt 0.148291 0.546250
vt 0.148279 0.542187
vt 0.152227 0.542175
vt 0.152240 0.546238
vt 0.365384 0.742495
vt 0.369448 0.742498
vt 0.369444 0.746562
vt 0.023852 0.737143
vt 0.019788 0.737130
vt 0.020386 0.542175
vt 0.024449 0.542187
vt 0.373833 0.546242
vt 0.373829 0.542178
vt 0.377893 0.542175
vt 0.377896 0.546238
vt 0.023840 0.741098
vt 0.019776 0.741085
vt 0.405642 0.737130
vt 0.409706 0.737143
vt 0.409694 0.741098
vt 0.405630 0.741085
vt 0.287460 0.546250
vt 0.287448 0.542187
vt 0.291396 0.542175
vt 0.291408 0.546238
vt 0.378054 0.746559
vt 0.373990 0.746562
vt 0.365542 0.542175
vt 0.369605 0.542178
vt 0.406241 0.542175
vt 0.410304 0.542187
vt 0.160119 0.542187
vt 0.160107 0.546250
vt 0.156179 0.546238
vt 0.156192 0.542175
vt 0.378057 0.742495
vt 0.382120 0.742498
vt 0.382117 0.746562
vt 0.387539 0.546095
vt 0.391602 0.546107
vt 0.391010 0.739347
vt 0.386946 0.739335
vt 0.352711 0.546242
vt 0.352708 0.542178
vt 0.356772 0.542175
vt 0.356775 0.546238
vt 0.387551 0.542175
vt 0.391615 0.542187
vt 0.392207 0.735427
vt 0.396271 0.735415
vt 0.396283 0.739335
vt 0.392219 0.739347
vt 0.164059 0.542187
vt 0.164047 0.546250
vt 0.160119 0.546238
vt 0.160132 0.542175
vt 0.356932 0.746559
vt 0.352869 0.746562
vt 0.378214 0.542175
vt 0.382278 0.542178
vt 0.395678 0.542175
vt 0.152252 0.546250
vt 0.152240 0.542187
vt 0.156167 0.542175
vt 0.055801 0.746559
vt 0.055804 0.742495
vt 0.059868 0.742498
vt 0.059865 0.746562
vt 0.039053 0.546095
vt 0.043117 0.546107
vt 0.042524 0.739347
vt 0.038460 0.739335
vt 0.356936 0.546242
vt 0.356932 0.542178
vt 0.360996 0.542175
vt 0.360999 0.546238
vt 0.039065 0.542175
vt 0.043128 0.542187
vt 0.029716 0.735427
vt 0.033780 0.735415
vt 0.033792 0.739335
vt 0.029728 0.739347
vt 0.283520 0.546250
vt 0.283508 0.542187
vt 0.287435 0.542175
vt 0.287448 0.546238
vt 0.361157 0.746559
vt 0.357093 0.746562
vt 0.055962 0.542175
vt 0.060026 0.542178
vt 0.033187 0.542175
vt 0.291421 0.546250
vt 0.291408 0.542187
vt 0.295356 0.542175
vt 0.060026 0.746559
vt 0.060029 0.742495
vt 0.064092 0.742498
vt 0.064089 0.746562
vt 0.400359 0.737143
vt 0.396295 0.737130
vt 0.396893 0.542175
vt 0.400957 0.542187
vt 0.064253 0.546242
vt 0.064250 0.542178
vt 0.068313 0.542175
vt 0.068317 0.546238
vt 0.400347 0.741098
vt 0.396283 0.741085
vt 0.015114 0.737130
vt 0.019178 0.737143
vt 0.019166 0.741098
vt 0.015102 0.741085
vt 0.144306 0.546250
vt 0.140358 0.546238
vt 0.140370 0.542175
vt 0.068474 0.746559
vt 0.064410 0.746562
vt 0.060186 0.542175
vt 0.015712 0.542175
vt 0.019776 0.542187
vt 0.279580 0.546250
vt 0.279568 0.542187
vt 0.283495 0.542175
vt 0.283508 0.546238
vt 0.068477 0.742495
vt 0.072541 0.742498
vt 0.072538 0.746562
vt 0.382871 0.546095
vt 0.386934 0.546107
vt 0.386342 0.739347
vt 0.382278 0.739335
vt 0.369608 0.546242
vt 0.373669 0.542175
vt 0.373672 0.546238
vt 0.382883 0.542175
vt 0.386946 0.542187
vt 0.034385 0.735427
vt 0.038448 0.735415
vt 0.034397 0.739347
vt 0.275641 0.546250
vt 0.275628 0.542187
vt 0.279556 0.542175
vt 0.279568 0.546238
vt 0.373829 0.746559
vt 0.369766 0.746562
vt 0.068635 0.542175
vt 0.072698 0.542178
vt 0.033792 0.542187
vt 0.037855 0.542175
vt 0.545660 0.939437
vt 0.544069 0.420922
vt 0.549424 0.420906
vt 0.551015 0.939421
vt 0.136381 0.547547
vt 0.131025 0.547530
vt 0.131042 0.542175
vt 0.136397 0.542191
vt 0.542478 0.939437
vt 0.537123 0.939421
vt 0.538714 0.420906
vt 0.308645 0.547547
vt 0.303290 0.547530
vt 0.303307 0.542175
vt 0.308662 0.542191
vt 0.564905 0.420922
vt 0.563314 0.939437
vt 0.557960 0.939421
vt 0.559550 0.420906
vt 0.552605 0.939437
vt 0.551015 0.420922
vt 0.556369 0.420906
vt 0.863744 0.014856
vt 0.863723 0.021973
vt 0.757995 0.021648
vt 0.758017 0.014531
vt 0.322939 0.542197
vt 0.330056 0.542175
vt 0.330380 0.647908
vt 0.323263 0.647930
vt 0.429612 0.428347
vt 0.429591 0.421230
vt 0.535318 0.420906
vt 0.535340 0.428023
vt 0.482514 0.021973
vt 0.482492 0.014856
vt 0.588225 0.014531
vt 0.588247 0.021648
vt 0.315800 0.542197
vt 0.315778 0.549314
vt 0.308662 0.549292
vt 0.308684 0.542175
vt 0.475608 0.021994
vt 0.475586 0.014877
vt 0.415569 0.540951
vt 0.415547 0.533834
vt 0.422663 0.533812
vt 0.422685 0.540929
vt 0.422707 0.428369
vt 0.422685 0.421251
vt 0.862744 0.341051
vt 0.869649 0.341072
vt 0.869058 0.533780
vt 0.862152 0.533759
vt 0.870650 0.014877
vt 0.870628 0.021994
vt 0.869035 0.541275
vt 0.862129 0.541254
vt 0.421684 0.214734
vt 0.414568 0.214756
vt 0.413977 0.022048
vt 0.421093 0.022026
vt 0.423686 0.747447
vt 0.430591 0.747426
vt 0.431183 0.940134
vt 0.424277 0.940155
vt 0.415569 0.542175
vt 0.422685 0.542197
vt 0.422094 0.734905
vt 0.414978 0.734883
vt 0.650465 0.413768
vt 0.650487 0.420886
vt 0.643581 0.420907
vt 0.643559 0.413790
vt 0.431206 0.947628
vt 0.536902 0.939809
vt 0.536925 0.947304
vt 0.413954 0.014553
vt 0.421070 0.014531
vt 0.424300 0.947649
vt 0.315823 0.542175
vt 0.322916 0.549691
vt 0.315800 0.549669
vt 0.756190 0.413444
vt 0.756212 0.420561
vt 0.756410 0.540929
vt 0.756433 0.533435
vt 0.095025 0.542197
vt 0.102142 0.542175
vt 0.102467 0.647900
vt 0.095350 0.647922
vt 0.650484 0.947646
vt 0.650462 0.940528
vt 0.756190 0.940204
vt 0.756212 0.947321
vt 0.087584 0.542197
vt 0.094701 0.542175
vt 0.095025 0.647908
vt 0.087908 0.647930
vt 0.976399 0.534153
vt 0.976377 0.541270
vt 0.870650 0.540946
vt 0.870672 0.533828
vt 0.483738 0.420885
vt 0.483716 0.413768
vt 0.589449 0.413443
vt 0.589471 0.420560
vt 0.131025 0.542197
vt 0.131004 0.549314
vt 0.123888 0.549292
vt 0.123909 0.542175
vt 0.476832 0.420906
vt 0.476810 0.413789
vt 0.016717 0.542175
vt 0.016695 0.535058
vt 0.023811 0.535036
vt 0.023833 0.542153
vt 0.983305 0.534174
vt 0.983283 0.541291
vt 0.649666 0.681071
vt 0.642761 0.681092
vt 0.641987 0.428831
vt 0.648892 0.428810
vt 0.643579 0.947667
vt 0.643557 0.940550
vt 0.641964 0.421253
vt 0.648869 0.421232
vt 0.023015 0.275578
vt 0.015899 0.275600
vt 0.015125 0.023339
vt 0.022241 0.023318
vt 0.984101 0.274716
vt 0.977195 0.274695
vt 0.977969 0.022435
vt 0.984875 0.022456
vt 0.765053 0.541275
vt 0.772169 0.541297
vt 0.771395 0.793557
vt 0.764279 0.793535
vt 0.649241 0.014856
vt 0.649263 0.021973
vt 0.642357 0.021995
vt 0.642335 0.014877
vt 0.015102 0.015761
vt 0.022218 0.015739
vt 0.977992 0.014856
vt 0.984898 0.014877
vt 0.871994 0.022110
vt 0.872018 0.014531
vt 0.109610 0.542197
vt 0.116726 0.542175
vt 0.116749 0.549753
vt 0.109633 0.549775
vt 0.755221 0.014531
vt 0.755243 0.021648
vt 0.754844 0.420907
vt 0.754867 0.428485
vt 0.337822 0.542197
vt 0.344939 0.542175
vt 0.345264 0.648155
vt 0.338147 0.648177
vt 0.596377 0.218035
vt 0.589471 0.218056
vt 0.573047 0.615846
vt 0.565511 0.615869
vt 0.564905 0.420929
vt 0.572483 0.420906
vt 0.816562 0.737336
vt 0.870650 0.933070
vt 0.863744 0.933091
vt 0.809656 0.737358
vt 0.217181 0.022685
vt 0.217158 0.015149
vt 0.642783 0.688289
vt 0.649688 0.688268
vt 0.015921 0.282797
vt 0.023037 0.282775
vt 0.977173 0.281892
vt 0.984079 0.281913
vt 0.772942 0.541275
vt 0.780058 0.541297
vt 0.779285 0.793557
vt 0.772169 0.793535
vt 0.337497 0.647948
vt 0.330380 0.647926
vt 0.330705 0.542175
vt 0.116771 0.542175
vt 0.123888 0.542197
vt 0.123865 0.549394
vt 0.116749 0.549372
vt 0.871427 0.281568
vt 0.871450 0.274371
vt 0.755412 0.680746
vt 0.755434 0.687943
vt 0.080142 0.542197
vt 0.087259 0.542175
vt 0.087584 0.647926
vt 0.080467 0.647948
vt 0.869677 0.332144
vt 0.862771 0.332123
vt 0.414596 0.223683
vt 0.421712 0.223662
vt 0.430564 0.738498
vt 0.423658 0.738519
vt 0.757163 0.541275
vt 0.764279 0.541297
vt 0.763328 0.851447
vt 0.756212 0.851425
vt 0.072698 0.542197
vt 0.079815 0.542175
vt 0.080142 0.648712
vt 0.073025 0.648734
vt 0.102494 0.542175
vt 0.109583 0.551124
vt 0.102467 0.551103
vt 0.537096 0.738171
vt 0.537123 0.747099
vt 0.756212 0.340724
vt 0.756239 0.331796
vt 0.345264 0.542197
vt 0.352381 0.542175
vt 0.352708 0.648712
vt 0.345591 0.648734
vt 0.573617 0.812642
vt 0.566122 0.812665
vt 0.869448 0.541275
vt 0.862542 0.541296
vt 0.809053 0.738093
vt 0.808455 0.933033
vt 0.801338 0.933011
vt 0.801936 0.738072
vt 0.587839 0.616661
vt 0.580933 0.616640
vt 0.635058 0.420907
vt 0.641964 0.420928
vt 0.429591 0.218034
vt 0.422685 0.218056
vt 0.218750 0.534438
vt 0.218772 0.541555
vt 0.809656 0.541297
vt 0.802539 0.541275
vt 0.640762 0.812723
vt 0.633856 0.812702
vn 0.969087 0.246718 0.000000
vn 0.000000 -0.000000 1.000000
vn 0.246717 -0.969088 0.000000
vn 0.000000 0.000000 -1.000000
vn -0.246714 0.969088 0.000000
vn -0.969088 -0.246715 0.000000
vn -0.246717 0.969088 0.000000
vn 0.246718 -0.969087 0.000000
vn -0.969087 0.246718 0.000000
vn -0.246717 -0.969088 0.000000
vn -0.246718 -0.969087 0.000000
vn 0.246714 0.969088 0.000000
vn 0.969088 -0.246717 0.000000
vn 0.246717 0.969088 0.000000
vn 0.969088 -0.246716 0.000000
vn -1.000000 0.000000 0.000000
vn 1.000000 0.000000 -0.000000
vn -0.000000 -1.000000 0.000000
vn -0.000000 1.000000 0.000000
vn -0.000040 0.000000 -1.000000
vn -0.263393 -0.964689 0.000000
vn -0.000174 0.000000 1.000000
vn -0.263393 0.964689 0.000000
vn -1.000000 0.000002 0.000000
vn -1.000000 0.000002 0.000002
vn 1.000000 0.000000 -0.000004
vn 0.263393 -0.964689 0.000000
vn 0.263393 0.964689 0.000000
vn -0.263564 -0.964642 0.000000
vn 0.263564 0.964642 0.000000
vn 0.263564 -0.964642 0.000000
vn -0.263564 0.964642 0.000000
usemtl Material.004
s off
f 5/1/1 6/2/1 2/3/1 1/4/1
f 6/5/2 7/6/2 3/7/2 2/8/2
f 4/9/3 3/10/3 9/11/3 10/12/3
f 8/13/4 5/14/4 1/15/4 4/16/4
f 1/17/3 2/18/3 3/10/3 4/9/3
f 8/19/5 7/20/5 6/21/5 5/22/5
f 11/23/6 12/24/6 10/25/6 9/26/6
f 8/13/4 4/16/4 10/5/4 12/27/4
f 3/7/2 7/6/2 11/28/2 9/29/2
f 7/20/7 8/19/7 12/30/7 11/31/7
f 17/32/1 18/1/1 14/33/1 13/34/1
f 18/35/2 19/36/2 15/37/2 14/38/2
f 16/39/3 15/40/3 21/41/3 22/42/3
f 20/43/4 17/44/4 13/45/4 16/46/4
f 13/47/8 14/48/8 15/40/8 16/39/8
f 20/49/5 19/50/5 18/51/5 17/52/5
f 23/53/6 24/54/6 22/55/6 21/56/6
f 20/43/4 16/46/4 22/57/4 24/58/4
f 15/37/2 19/36/2 23/59/2 21/14/2
f 19/50/7 20/49/7 24/60/7 23/61/7
f 29/62/1 30/63/1 26/64/1 25/65/1
f 30/57/2 31/66/2 27/67/2 26/68/2
f 28/69/3 27/70/3 33/71/3 34/72/3
f 32/73/4 29/74/4 25/75/4 28/76/4
f 25/77/8 26/78/8 27/70/8 28/69/8
f 32/79/5 31/80/5 30/81/5 29/82/5
f 35/83/6 36/84/6 34/85/6 33/86/6
f 32/73/4 28/76/4 34/87/4 36/88/4
f 27/67/2 31/66/2 35/89/2 33/90/2
f 31/80/7 32/79/7 36/91/7 35/92/7
f 41/93/9 42/94/9 38/95/9 37/96/9
f 42/87/4 43/97/4 39/98/4 38/99/4
f 40/100/10 39/101/10 45/102/10 46/103/10
f 44/104/2 41/105/2 37/106/2 40/107/2
f 37/108/11 38/109/11 39/101/11 40/100/11
f 44/110/12 43/111/12 42/112/12 41/113/12
f 47/114/13 48/115/13 46/116/13 45/117/13
f 44/104/2 40/107/2 46/118/2 48/119/2
f 39/98/4 43/97/4 47/120/4 45/121/4
f 43/111/14 44/110/14 48/109/14 47/122/14
f 53/123/9 54/124/9 50/125/9 49/95/9
f 54/126/4 55/127/4 51/128/4 50/129/4
f 52/130/10 51/131/10 57/132/10 58/133/10
f 56/134/2 53/135/2 49/136/2 52/137/2
f 49/138/11 50/139/11 51/131/11 52/130/11
f 56/140/12 55/141/12 54/142/12 53/143/12
f 59/144/13 60/145/13 58/146/13 57/147/13
f 56/134/2 52/137/2 58/148/2 60/149/2
f 51/128/4 55/127/4 59/150/4 57/151/4
f 55/141/14 56/140/14 60/12/14 59/152/14
f 65/153/1 66/154/1 62/155/1 61/3/1
f 66/156/2 67/157/2 63/158/2 62/159/2
f 64/160/3 63/161/3 69/162/3 70/163/3
f 68/164/4 65/165/4 61/166/4 64/167/4
f 61/168/8 62/169/8 63/161/8 64/160/8
f 68/170/5 67/171/5 66/172/5 65/173/5
f 71/24/6 72/174/6 70/175/6 69/176/6
f 68/164/4 64/167/4 70/177/4 72/178/4
f 63/158/2 67/157/2 71/179/2 69/165/2
f 67/171/7 68/170/7 72/180/7 71/181/7
f 77/182/9 78/183/9 74/184/9 73/185/9
f 78/177/4 79/186/4 75/187/4 74/188/4
f 76/189/10 75/190/10 81/191/10 82/192/10
f 80/193/2 77/90/2 73/194/2 76/195/2
f 73/196/11 74/197/11 75/190/11 76/189/11
f 80/198/12 79/199/12 78/133/12 77/200/12
f 83/201/15 84/202/15 82/203/15 81/204/15
f 80/193/2 76/195/2 82/205/2 84/206/2
f 75/187/4 79/186/4 83/207/4 81/208/4
f 79/199/14 80/198/14 84/209/14 83/210/14
f 89/211/16 90/212/16 86/213/16 85/214/16
f 90/215/4 91/216/4 87/217/4 86/218/4
f 91/212/17 92/219/17 88/220/17 87/221/17
f 92/222/2 89/223/2 85/224/2 88/225/2
f 85/226/18 86/227/18 87/228/18 88/229/18
f 92/230/19 91/231/19 90/232/19 89/228/19
f 97/233/16 98/234/16 94/235/16 93/236/16
f 98/237/4 99/238/4 95/239/4 94/240/4
f 99/241/17 100/242/17 96/243/17 95/244/17
f 100/245/2 97/246/2 93/247/2 96/248/2
f 93/249/18 94/250/18 95/251/18 96/252/18
f 97/246/2 100/245/2 104/253/2 101/254/2
f 104/255/19 103/256/19 102/257/19 101/258/19
f 100/242/17 99/241/17 103/259/17 104/260/17
f 155/261/16 154/262/16 107/263/16 105/264/16
f 98/234/16 97/233/16 101/265/16 102/266/16
f 105/264/16 107/263/16 111/267/16 109/268/16
f 154/269/19 158/270/19 108/271/19 107/272/19
f 158/273/17 160/274/17 106/275/17 108/276/17
f 160/277/18 155/278/18 105/279/18 106/280/18
f 110/281/4 109/282/4 111/283/4 112/284/4
f 110/285/17 106/275/17 114/286/17 116/287/17
f 107/272/19 108/271/19 112/288/19 111/289/19
f 108/276/17 106/275/17 110/285/17 112/290/17
f 114/291/18 113/237/18 115/292/18 116/293/18
f 109/282/4 110/281/4 116/294/4 115/295/4
f 105/264/16 109/268/16 115/296/16 113/297/16
f 106/298/2 105/299/2 113/300/2 114/301/2
f 121/302/16 122/303/16 118/304/16 117/305/16
f 122/306/4 123/307/4 119/308/4 118/309/4
f 123/310/17 124/311/17 120/312/17 119/313/17
f 124/314/2 121/315/2 117/316/2 120/317/2
f 117/318/18 118/319/18 119/320/18 120/321/18
f 121/315/2 124/314/2 128/322/2 125/323/2
f 128/324/19 127/325/19 126/326/19 125/327/19
f 124/311/17 123/310/17 127/328/17 128/329/17
f 143/330/16 142/331/16 131/332/16 129/333/16
f 122/303/16 121/302/16 125/334/16 126/335/16
f 129/333/16 131/332/16 135/336/16 133/337/16
f 142/338/19 146/339/19 132/340/19 131/341/19
f 146/342/17 148/343/17 130/344/17 132/345/17
f 148/346/18 143/347/18 129/348/18 130/349/18
f 134/350/4 133/351/4 135/352/4 136/353/4
f 131/341/19 132/340/19 136/354/19 135/355/19
f 132/345/17 130/344/17 134/356/17 136/357/17
f 134/356/17 130/344/17 138/358/17 140/359/17
f 138/360/18 137/361/18 139/362/18 140/363/18
f 133/351/4 134/350/4 140/364/4 139/365/4
f 129/333/16 133/337/16 139/366/16 137/367/16
f 130/368/2 129/369/2 137/370/2 138/371/2
f 165/372/20 166/373/20 135/352/20 133/351/20
f 167/374/21 165/375/21 133/376/21 129/377/21
f 167/378/22 129/379/22 131/380/22 168/381/22
f 168/382/23 166/383/23 112/288/23 108/271/23
f 122/303/16 126/335/16 141/384/16 144/385/16
f 144/385/16 141/384/16 142/331/16 143/330/16
f 126/326/19 127/325/19 145/386/19 141/387/19
f 141/387/19 145/386/19 146/339/19 142/338/19
f 127/328/17 123/310/17 147/388/17 145/389/17
f 145/389/17 147/388/17 148/343/17 146/342/17
f 123/390/18 122/391/18 144/392/18 147/393/18
f 143/394/4 148/395/4 152/396/4 149/368/4
f 151/397/18 150/398/18 149/399/18 152/400/18
f 148/343/17 147/388/17 151/401/17 152/402/17
f 144/385/16 143/330/16 149/403/16 150/404/16
f 147/405/2 144/406/2 150/407/2 151/408/2
f 98/234/24 102/266/24 153/409/24 156/410/24
f 156/410/25 153/409/25 154/262/25 155/261/25
f 102/257/19 103/256/19 157/411/19 153/412/19
f 153/412/19 157/411/19 158/270/19 154/269/19
f 103/259/17 99/241/17 159/413/17 157/414/17
f 157/414/26 159/413/26 160/274/26 158/273/26
f 99/415/18 98/416/18 156/417/18 159/418/18
f 155/419/4 160/420/4 164/421/4 161/422/4
f 163/423/18 162/360/18 161/424/18 164/425/18
f 160/274/26 159/413/26 163/426/26 164/427/26
f 156/410/16 155/261/16 161/428/16 162/429/16
f 159/430/2 156/431/2 162/432/2 163/433/2
f 110/281/20 112/284/20 166/373/20 165/372/20
f 106/434/27 110/435/27 165/375/27 167/374/27
f 106/436/22 167/378/22 168/381/22 108/437/22
f 131/341/28 135/355/28 166/383/28 168/382/28
f 169/438/29 122/439/29 121/440/29 170/441/29
f 169/442/4 171/443/4 126/444/4 122/445/4
f 170/446/2 121/315/2 125/323/2 172/447/2
f 171/448/30 172/449/30 125/327/30 126/326/30
f 99/450/31 169/438/31 170/441/31 100/451/31
f 99/452/4 103/453/4 171/443/4 169/442/4
f 100/245/2 170/446/2 172/447/2 104/253/2
f 103/256/32 104/255/32 172/449/32 171/448/32
