# Blender v2.66 (sub 1) OBJ File: 'scene.blend'
# www.blender.org
mtllib walls.mtl
o Cube.004_Cube.005
v 0.219812 0.033764 -12.701848
v -2.891969 0.033764 -12.701849
v -2.891969 0.033764 -12.763941
v 0.219812 0.033764 -12.763940
v 0.219812 3.727144 -12.701848
v -2.891969 4.608854 -12.701849
v -2.891969 4.608854 -12.763941
v 0.219812 3.727144 -12.763940
v -7.517476 0.033765 2.846325
v -9.929634 0.033765 2.846325
v -9.929634 0.033765 2.784232
v -7.517476 0.033765 2.784233
v -7.517476 3.995188 2.846325
v -9.929634 3.270545 2.846325
v -9.929634 3.270545 2.784232
v -7.517476 3.995188 2.784233
v 2.029518 0.033765 2.846325
v -0.382640 0.033765 2.846325
v -0.382640 0.033765 2.784232
v 2.029518 0.033765 2.784232
v 2.029518 3.270545 2.846325
v -0.382640 3.995188 2.846325
v -0.382640 3.995188 2.784232
v 2.029518 3.270545 2.784232
v -9.929634 2.532056 2.846325
v -7.517476 2.532056 2.846325
v -9.929634 2.532056 2.784232
v -7.517476 2.532056 2.784233
v 2.029518 2.532056 2.784232
v -0.382640 2.532056 2.784232
v 2.029518 2.532056 2.846325
v -0.382640 2.532056 2.846325
v -3.950058 4.839404 2.784232
v -3.950058 2.532056 2.784232
v -3.950058 2.532056 2.846325
v -3.950058 4.839404 2.846325
v -9.938444 0.033765 2.808291
v -9.938444 0.033765 -2.461291
v -9.876352 0.033765 -2.461291
v -9.876351 0.033765 2.808291
v -9.938444 3.270545 2.808291
v -9.938444 3.270544 -2.461291
v -9.876352 3.270544 -2.461291
v -9.876351 3.270545 2.808291
v -9.965669 0.033765 -5.008743
v -9.965669 0.033764 -12.755657
v -9.903576 0.033764 -12.755657
v -9.903576 0.033765 -5.008743
v -9.965669 3.270544 -5.008743
v -9.965669 3.270544 -12.755657
v -9.903576 3.270544 -12.755657
v -9.903576 3.270544 -5.008743
v 1.958197 0.033764 -7.948875
v 1.958197 0.033764 -12.755658
v 2.020290 0.033764 -12.755658
v 2.020290 0.033764 -7.948876
v 1.958197 3.270544 -7.948875
v 1.958197 3.270544 -12.755658
v 2.020290 3.270544 -12.755658
v 2.020290 3.270544 -7.948876
v 1.958197 0.033765 2.808291
v 1.958197 0.033765 -1.998493
v 2.020290 0.033765 -1.998493
v 2.020290 0.033765 2.808291
v 1.958197 3.270545 2.808291
v 1.958197 3.270544 -1.998493
v 2.020290 3.270544 -1.998493
v 2.020290 3.270545 2.808291
v 1.958197 2.950524 -1.998493
v 1.958197 2.950524 2.808291
v 2.020290 2.950524 -1.998493
v 2.020290 2.950524 2.808291
v 2.020290 3.270544 -0.893365
v 2.020290 3.270544 1.703164
v 2.020290 0.033765 1.703164
v 2.020290 0.033765 -0.893365
v 1.958197 2.950523 -0.893365
v 1.958197 2.950524 1.703164
v 2.020290 2.950524 1.703164
v 2.020290 2.950523 -0.893365
v 1.958197 2.585929 2.808291
v 2.020290 2.585929 2.808291
v 2.020290 2.585929 -1.998493
v 1.958197 2.585929 -1.998493
v 1.958197 2.585929 -0.893365
v 1.958197 2.585929 1.703164
v 2.020290 2.585929 1.703164
v 2.020290 2.585929 -0.893365
v 1.958197 0.033765 1.703164
v 1.958197 0.033765 -0.893365
v 1.958197 3.270544 -0.893365
v 1.958197 3.270544 1.703164
vt 0.305088 0.479923
vt 0.163777 0.519963
vt 0.163777 0.312200
vt 0.305088 0.312200
vt 0.154843 0.512638
vt 0.152120 0.512646
vt 0.151504 0.311962
vt 0.154228 0.311953
vt 0.155971 0.520236
vt 0.014173 0.480058
vt 0.014173 0.311758
vt 0.155971 0.311758
vt 0.017742 0.474810
vt 0.014999 0.474818
vt 0.014499 0.311653
vt 0.017242 0.311645
vt 0.338447 0.646707
vt 0.152816 0.647276
vt 0.152805 0.643572
vt 0.338436 0.643003
vt 0.345208 0.623183
vt 0.152269 0.623775
vt 0.152258 0.620071
vt 0.345197 0.619479
vt 0.136723 0.875285
vt 0.011022 0.875670
vt 0.010623 0.745481
vt 0.136324 0.745095
vt 0.183724 0.831632
vt 0.183714 0.828467
vt 0.311026 0.828077
vt 0.311036 0.831241
vt 0.641823 0.659574
vt 0.515486 0.659574
vt 0.515486 0.528726
vt 0.641823 0.528726
vt 0.130550 0.746359
vt 0.133715 0.746349
vt 0.134105 0.873661
vt 0.130941 0.873671
vt 0.145364 0.811361
vt 0.271066 0.811747
vt 0.271056 0.814982
vt 0.145354 0.814597
vt 0.370893 0.848903
vt 0.496594 0.848517
vt 0.496604 0.851753
vt 0.370903 0.852138
vt 0.634231 0.873758
vt 0.508530 0.874144
vt 0.508131 0.743954
vt 0.633832 0.743569
vt 0.510788 0.744150
vt 0.513952 0.744140
vt 0.514343 0.871452
vt 0.511179 0.871462
vt 0.141797 0.659574
vt 0.015460 0.659574
vt 0.015460 0.528726
vt 0.141797 0.528726
vt 0.183724 0.838373
vt 0.183714 0.835209
vt 0.311026 0.834819
vt 0.311036 0.837983
vt 0.496604 0.844120
vt 0.370903 0.844506
vt 0.370893 0.841270
vt 0.496594 0.840884
vt 0.271727 0.823286
vt 0.146026 0.822901
vt 0.146035 0.819665
vt 0.271737 0.820051
vt 0.136957 0.951531
vt 0.011140 0.914154
vt 0.146091 0.831747
vt 0.146081 0.828583
vt 0.641823 0.698253
vt 0.515486 0.736206
vt 0.146474 0.845440
vt 0.146465 0.842276
vt 0.221025 0.842047
vt 0.221035 0.845212
vt 0.322996 0.994954
vt 0.322627 0.874714
vt 0.146327 0.852776
vt 0.146317 0.849612
vt 0.220878 0.849383
vt 0.220888 0.852547
vt 0.634350 0.912242
vt 0.508764 0.950390
vt 0.141797 0.736206
vt 0.015460 0.698253
vt 0.146091 0.838489
vt 0.146081 0.835325
vt 0.305092 0.857856
vt 0.305084 0.860635
vt 0.145411 0.860145
vt 0.145419 0.857366
vt 0.328642 0.780422
vt 0.328642 0.659574
vt 0.305084 0.866316
vt 0.145411 0.866806
vt 0.145419 0.869585
vt 0.305092 0.869095
vt 0.464766 0.858346
vt 0.464757 0.861125
vt 0.464757 0.865826
vt 0.464766 0.868605
vt 0.290473 0.171020
vt 0.016527 0.171020
vt 0.016527 0.002752
vt 0.290473 0.002752
vt 0.020785 0.164069
vt 0.017710 0.164078
vt 0.017218 0.003767
vt 0.020293 0.003757
vt 0.571240 0.170527
vt 0.298103 0.170527
vt 0.298103 0.002755
vt 0.571240 0.002755
vt 0.193367 0.280460
vt 0.193378 0.284063
vt 0.005554 0.284639
vt 0.005543 0.281036
vt 0.311326 0.300685
vt 0.005543 0.299747
vt 0.005554 0.296144
vt 0.311338 0.297082
vt 0.311338 0.291724
vt 0.005554 0.292662
vt 0.005543 0.289059
vt 0.311327 0.288121
vt 0.720299 0.524458
vt 0.317128 0.524458
vt 0.317128 0.356007
vt 0.720299 0.356007
vt 0.388798 0.596716
vt 0.388812 0.601242
vt 0.152904 0.601965
vt 0.152890 0.597440
vt 0.720907 0.350535
vt 0.317812 0.350535
vt 0.317812 0.182115
vt 0.720907 0.182115
vt 0.718184 0.519082
vt 0.715051 0.519092
vt 0.714550 0.355769
vt 0.717683 0.355759
vt 0.987429 0.522713
vt 0.988874 0.993688
vt 0.985099 0.993700
vt 0.983654 0.522725
vt 0.997741 0.522725
vt 0.996297 0.993700
vt 0.992522 0.993688
vt 0.993967 0.522713
vt 0.990685 0.358828
vt 0.738799 0.358828
vt 0.738799 0.189213
vt 0.990685 0.189213
vt 0.871105 0.606715
vt 0.871118 0.610935
vt 0.651137 0.611610
vt 0.651124 0.607390
vt 0.990070 0.180135
vt 0.738785 0.180135
vt 0.738785 0.010925
vt 0.990070 0.010925
vt 0.744150 0.175439
vt 0.741020 0.175449
vt 0.740519 0.012267
vt 0.743649 0.012258
vt 0.977376 0.632379
vt 0.650693 0.631376
vt 0.650706 0.627156
vt 0.977389 0.628159
vt 0.977389 0.640676
vt 0.650706 0.641679
vt 0.650693 0.637459
vt 0.977377 0.636456
vt 0.703060 0.785686
vt 0.645767 0.785686
vt 0.645767 0.653377
vt 0.703060 0.653377
vt 0.892852 0.954380
vt 0.889762 0.954390
vt 0.889372 0.827391
vt 0.892462 0.827381
vt 0.702036 0.959168
vt 0.644781 0.959168
vt 0.644781 0.826943
vt 0.702036 0.826943
vt 0.955662 0.818657
vt 0.959913 0.818644
vt 0.960449 0.993375
vt 0.956198 0.993388
vt 0.971637 0.917727
vt 0.971405 0.993388
vt 0.967153 0.993375
vt 0.967386 0.917714
vt 0.979749 0.917714
vt 0.979981 0.993375
vt 0.975730 0.993388
vt 0.975498 0.917727
vt 0.703060 0.821178
vt 0.645767 0.821178
vt 0.645767 0.804588
vt 0.703060 0.804588
vt 0.892956 0.988448
vt 0.889867 0.988457
vt 0.889818 0.972533
vt 0.892908 0.972523
vt 0.702036 0.994637
vt 0.644781 0.994637
vt 0.644781 0.978057
vt 0.702036 0.978057
vt 0.955519 0.771785
vt 0.959770 0.771772
vt 0.959837 0.793682
vt 0.955586 0.793695
vt 0.893815 0.959168
vt 0.836560 0.959168
vt 0.836560 0.826943
vt 0.893815 0.826943
vt 0.972182 0.739958
vt 0.967931 0.739945
vt 0.978971 0.664284
vt 0.979203 0.739945
vt 0.974952 0.739958
vt 0.974720 0.664297
vt 0.837669 0.785686
vt 0.837669 0.653377
vt 0.972414 0.664297
vt 0.968163 0.664284
vt 0.894961 0.785686
vt 0.894961 0.653377
vt 0.894961 0.821178
vt 0.837669 0.821178
vt 0.837669 0.804588
vt 0.894961 0.804588
vt 0.893815 0.994637
vt 0.836560 0.994637
vt 0.836560 0.978057
vt 0.893815 0.978057
vt 0.944705 0.815406
vt 0.948957 0.815393
vt 0.949502 0.993162
vt 0.945251 0.993175
vt 0.912771 0.948294
vt 0.920338 0.948317
vt 0.920202 0.992752
vt 0.912634 0.992729
vt 0.913072 0.901065
vt 0.920640 0.901088
vt 0.920503 0.945523
vt 0.912936 0.945500
vt 0.936764 0.815311
vt 0.941015 0.815324
vt 0.940470 0.993093
vt 0.936219 0.993080
vn -0.000000 0.000000 1.000000
vn -1.000000 0.000000 0.000000
vn 0.000000 0.000000 -1.000000
vn 1.000000 -0.000000 0.000000
vn 0.000000 -1.000000 0.000000
vn 0.272614 0.962124 0.000000
vn -0.287711 0.957717 0.000000
vn 0.287710 0.957717 0.000000
vn -0.230286 -0.973123 0.000000
vn 0.230286 -0.973123 0.000000
vn 0.000000 1.000000 -0.000000
vn 0.000015 0.000000 1.000000
vn -0.000006 0.000000 -1.000000
usemtl Material
s off
f 5/1/1 6/2/1 2/3/1 1/4/1
f 6/5/2 7/6/2 3/7/2 2/8/2
f 7/9/3 8/10/3 4/11/3 3/12/3
f 8/13/4 5/14/4 1/15/4 4/16/4
f 1/17/5 2/18/5 3/19/5 4/20/5
f 8/21/6 7/22/6 6/23/6 5/24/6
f 26/25/1 25/26/1 10/27/1 9/28/1
f 25/29/2 27/30/2 11/31/2 10/32/2
f 27/33/3 28/34/3 12/35/3 11/36/3
f 28/37/4 26/38/4 9/39/4 12/40/4
f 9/41/5 10/42/5 11/43/5 12/44/5
f 16/45/7 15/46/7 14/47/7 13/48/7
f 31/49/1 32/50/1 18/51/1 17/52/1
f 32/53/2 30/54/2 19/55/2 18/56/2
f 30/57/3 29/58/3 20/59/3 19/60/3
f 29/61/4 31/62/4 17/63/4 20/64/4
f 17/65/5 18/66/5 19/67/5 20/68/5
f 24/69/8 23/70/8 22/71/8 21/72/8
f 13/73/1 14/74/1 25/26/1 26/25/1
f 14/75/2 15/76/2 27/30/2 25/29/2
f 15/77/3 16/78/3 28/34/3 27/33/3
f 16/79/4 13/80/4 26/81/4 28/82/4
f 36/83/1 13/73/1 26/25/1 35/84/1
f 22/85/2 23/86/2 30/87/2 32/88/2
f 21/89/1 22/90/1 32/50/1 31/49/1
f 23/91/3 24/92/3 29/58/3 30/57/3
f 24/93/4 21/94/4 31/62/4 29/61/4
f 36/95/9 33/96/9 23/97/9 22/98/9
f 33/99/3 34/100/3 28/34/3 16/78/3
f 34/101/5 30/102/5 32/103/5 35/104/5
f 22/90/1 36/83/1 35/84/1 32/50/1
f 13/105/10 16/106/10 33/96/10 36/95/10
f 23/91/3 30/57/3 34/100/3 33/99/3
f 28/107/5 34/101/5 35/104/5 26/108/5
f 41/109/2 42/110/2 38/111/2 37/112/2
f 42/113/3 43/114/3 39/115/3 38/116/3
f 43/117/4 44/118/4 40/119/4 39/120/4
f 44/121/1 41/122/1 37/123/1 40/124/1
f 37/125/5 38/126/5 39/127/5 40/128/5
f 44/129/11 43/130/11 42/131/11 41/132/11
f 49/133/2 50/134/2 46/135/2 45/136/2
f 50/137/3 51/138/3 47/139/3 46/140/3
f 51/141/4 52/142/4 48/143/4 47/144/4
f 52/145/1 49/146/1 45/147/1 48/148/1
f 45/149/5 46/150/5 47/151/5 48/152/5
f 52/153/11 51/154/11 50/155/11 49/156/11
f 57/157/2 58/158/2 54/159/2 53/160/2
f 58/161/3 59/162/3 55/163/3 54/164/3
f 59/165/4 60/166/4 56/167/4 55/168/4
f 60/169/12 57/170/12 53/171/12 56/172/12
f 53/173/5 54/174/5 55/175/5 56/176/5
f 60/177/11 59/178/11 58/179/11 57/180/11
f 85/181/2 84/182/2 62/183/2 90/184/2
f 84/185/13 83/186/13 63/187/13 62/188/13
f 87/189/4 82/190/4 64/191/4 75/192/4
f 82/193/1 81/194/1 61/195/1 64/196/1
f 90/197/5 62/198/5 63/199/5 76/200/5
f 73/201/11 67/202/11 66/203/11 91/204/11
f 91/205/2 66/206/2 69/207/2 77/208/2
f 66/209/13 67/210/13 71/211/13 69/212/13
f 74/213/4 68/214/4 72/215/4 79/216/4
f 68/217/1 65/218/1 70/219/1 72/220/1
f 79/216/4 72/215/4 82/190/4 87/189/4
f 72/220/1 70/219/1 81/194/1 82/193/1
f 83/221/4 88/222/4 76/223/4 63/224/4
f 89/225/5 90/197/5 76/200/5 75/226/5
f 68/227/11 74/228/11 92/229/11 65/230/11
f 77/208/2 69/207/2 84/182/2 85/181/2
f 69/212/13 71/211/13 83/186/13 84/185/13
f 86/231/2 85/181/2 90/184/2 89/232/2
f 88/222/4 87/189/4 75/192/4 76/223/4
f 74/228/11 73/201/11 91/204/11 92/229/11
f 61/233/5 89/225/5 75/226/5 64/234/5
f 81/235/2 86/231/2 89/232/2 61/236/2
f 65/237/2 92/238/2 78/239/2 70/240/2
f 92/238/2 91/205/2 77/208/2 78/239/2
f 67/241/4 73/242/4 80/243/4 71/244/4
f 73/242/4 74/213/4 79/216/4 80/243/4
f 71/244/4 80/243/4 88/222/4 83/221/4
f 79/245/5 78/246/5 77/247/5 80/248/5
f 70/240/2 78/239/2 86/231/2 81/235/2
f 78/249/3 79/250/3 87/251/3 86/252/3
f 80/253/1 77/254/1 85/255/1 88/256/1
f 86/257/11 87/258/11 88/259/11 85/260/11
