# Blender v2.66 (sub 1) OBJ File: 'scene.blend'
# www.blender.org
mtllib windowceiling.mtl
o Cube.021_Cube.024
v 1.953071 2.571595 1.718383
v 1.953071 2.571595 1.669656
v 2.031104 2.571595 1.669656
v 2.031104 2.571595 1.718383
v 1.953071 2.976711 1.718383
v 1.953071 2.976711 1.669656
v 2.031104 2.976711 1.669656
v 2.031104 2.976711 1.718383
v 1.953071 2.936293 1.669656
v 1.953071 2.612013 1.669656
v 1.953071 2.612013 1.718383
v 1.953071 2.936293 1.718383
v 2.031104 2.936293 1.669656
v 2.031104 2.612013 1.669656
v 2.031104 2.936293 1.718383
v 2.031104 2.612013 1.718383
v 1.953071 2.774153 1.669656
v 1.953071 2.774153 1.718383
v 2.031104 2.774153 1.669656
v 2.031104 2.774153 1.718383
v 1.953071 2.571595 1.000371
v 2.031104 2.571595 1.000371
v 1.953071 2.976711 1.000371
v 2.031104 2.976711 1.000371
v 1.953071 2.936293 1.000371
v 1.953071 2.612013 1.000371
v 2.031104 2.936293 1.000371
v 2.031104 2.612013 1.000371
v 1.953071 2.571595 0.963798
v 2.031104 2.571595 0.963798
v 1.953071 2.976711 0.963798
v 2.031104 2.976711 0.963798
v 1.953071 2.936293 0.963798
v 1.953071 2.612013 0.963798
v 2.031104 2.936293 0.963798
v 2.031104 2.612013 0.963798
v 1.953071 2.571595 0.038503
v 2.031104 2.571595 0.038503
v 1.953071 2.976711 0.038503
v 2.031104 2.976711 0.038503
v 1.953071 2.936293 0.038503
v 1.953071 2.612013 0.038503
v 2.031104 2.936293 0.038503
v 2.031104 2.612013 0.038503
v 1.953071 2.571595 -0.005385
v 2.031104 2.571595 -0.005385
v 1.953071 2.976711 -0.005385
v 2.031104 2.976711 -0.005385
v 1.953071 2.936293 -0.005385
v 1.953071 2.612013 -0.005385
v 2.031104 2.936293 -0.005385
v 2.031104 2.612013 -0.005385
v 1.953071 2.571595 -0.861192
v 2.031104 2.571595 -0.861192
v 1.953071 2.976711 -0.861192
v 2.031104 2.976711 -0.861192
v 1.953071 2.936293 -0.861192
v 1.953071 2.612013 -0.861192
v 2.031104 2.936293 -0.861192
v 2.031104 2.612013 -0.861192
v 1.953071 2.571595 -0.916051
v 2.031104 2.571595 -0.916051
v 1.953071 2.976711 -0.916051
v 2.031104 2.976711 -0.916051
v 1.953071 2.936293 -0.916051
v 1.953071 2.612013 -0.916051
v 2.031104 2.936293 -0.916051
v 2.031104 2.612013 -0.916051
vt 0.210470 0.970846
vt 0.210410 0.953293
vt 0.226632 0.953248
vt 0.226692 0.970802
vt 0.657490 0.021764
vt 0.688809 0.021851
vt 0.687985 0.262956
vt 0.656666 0.262870
vt 0.421288 0.039363
vt 0.421228 0.021809
vt 0.437449 0.021764
vt 0.437510 0.039318
vt 0.820086 0.342487
vt 0.851404 0.342401
vt 0.851454 0.356961
vt 0.820136 0.357047
vt 0.492100 0.970888
vt 0.492040 0.953334
vt 0.523358 0.953248
vt 0.523418 0.970802
vt 0.602900 0.021764
vt 0.602960 0.039318
vt 0.571641 0.039404
vt 0.571581 0.021851
vt 0.064096 0.971250
vt 0.064036 0.953696
vt 0.080258 0.953651
vt 0.080318 0.971205
vt 0.145394 0.971026
vt 0.145334 0.953472
vt 0.209586 0.712187
vt 0.225807 0.712143
vt 0.819836 0.458773
vt 0.851155 0.458687
vt 0.851355 0.517097
vt 0.820036 0.517183
vt 0.274914 0.039766
vt 0.274854 0.022212
vt 0.291076 0.022167
vt 0.291136 0.039721
vt 0.356212 0.039542
vt 0.356152 0.021988
vt 0.819637 0.211107
vt 0.850955 0.211021
vt 0.851005 0.225581
vt 0.819687 0.225667
vt 0.819886 0.284077
vt 0.851205 0.283991
vt 0.819637 0.400363
vt 0.850955 0.400277
vt 0.572465 0.280510
vt 0.603784 0.280423
vt 0.603829 0.293599
vt 0.572510 0.293685
vt 0.687940 0.276131
vt 0.656621 0.276045
vt 0.438334 0.280423
vt 0.422112 0.280468
vt 0.063212 0.712591
vt 0.079434 0.712546
vt 0.291960 0.280826
vt 0.275738 0.280871
vt 0.768290 0.953334
vt 0.736972 0.953248
vt 0.737796 0.712143
vt 0.769114 0.712229
vt 0.491216 0.712229
vt 0.522534 0.712143
vt 0.769159 0.699054
vt 0.737841 0.698968
vt 0.738980 0.365636
vt 0.770299 0.365722
vt 0.225763 0.698968
vt 0.209541 0.699012
vt 0.208401 0.365681
vt 0.224623 0.365636
vt 0.491171 0.699054
vt 0.522489 0.698968
vt 0.292005 0.294002
vt 0.275783 0.294046
vt 0.438379 0.293599
vt 0.422157 0.293643
vt 0.063167 0.699415
vt 0.079389 0.699371
vt 0.521350 0.365636
vt 0.490031 0.365722
vt 0.489977 0.349912
vt 0.521296 0.349826
vt 0.573650 0.627016
vt 0.604968 0.626930
vt 0.605022 0.642740
vt 0.573704 0.642827
vt 0.439518 0.626930
vt 0.423296 0.626975
vt 0.062028 0.366084
vt 0.078250 0.366039
vt 0.686800 0.609463
vt 0.655482 0.609376
vt 0.293145 0.627333
vt 0.276923 0.627378
vt 0.078196 0.350229
vt 0.061974 0.350274
vt 0.060920 0.041975
vt 0.077142 0.041930
vt 0.423350 0.642785
vt 0.439572 0.642740
vt 0.440626 0.951039
vt 0.424404 0.951084
vt 0.293199 0.643143
vt 0.276977 0.643188
vt 0.208347 0.349871
vt 0.224569 0.349826
vt 0.739034 0.349826
vt 0.770353 0.349912
vt 0.686746 0.625273
vt 0.655428 0.625187
vt 0.278030 0.951487
vt 0.294252 0.951442
vt 0.294320 0.971205
vt 0.278098 0.971250
vt 0.520242 0.041527
vt 0.488923 0.041613
vt 0.488856 0.021851
vt 0.520175 0.021764
vt 0.685693 0.933572
vt 0.654374 0.933485
vt 0.606076 0.951039
vt 0.574757 0.951125
vt 0.207294 0.041572
vt 0.223515 0.041527
vt 0.740088 0.041527
vt 0.771407 0.041613
vt 0.820086 0.153231
vt 0.851404 0.153145
vt 0.851454 0.167705
vt 0.820136 0.167791
vt 0.819637 0.021851
vt 0.850955 0.021764
vt 0.851005 0.036325
vt 0.819687 0.036411
vt 0.207226 0.021809
vt 0.223448 0.021764
vt 0.740155 0.021764
vt 0.771474 0.021851
vt 0.440693 0.970802
vt 0.424471 0.970846
vt 0.060853 0.022212
vt 0.077074 0.022167
vt 0.685625 0.953334
vt 0.654306 0.953248
vt 0.606144 0.970802
vt 0.574825 0.970888
vt 0.930936 0.211021
vt 0.931335 0.327841
vt 0.900016 0.327927
vt 0.899617 0.211107
vt 0.930836 0.400277
vt 0.931235 0.517097
vt 0.899917 0.517183
vt 0.899517 0.400363
vt 0.850955 0.677319
vt 0.819637 0.677232
vt 0.820036 0.560412
vt 0.851355 0.560499
vt 0.930836 0.677319
vt 0.899517 0.677232
vt 0.899917 0.560412
vt 0.931235 0.560499
vt 0.930936 0.021764
vt 0.931335 0.138584
vt 0.900016 0.138671
vt 0.899617 0.021851
vn -1.000000 0.000000 0.000000
vn 0.000000 -1.000000 0.000000
vn 1.000000 -0.000000 0.000000
vn 0.000000 -0.000000 1.000000
vn -0.000000 1.000000 0.000000
vn 0.000000 0.000000 -1.000000
usemtl Material.002
s off
f 11/1/1 10/2/1 2/3/1 1/4/1
f 13/5/2 9/6/2 25/7/2 27/8/2
f 14/9/3 16/10/3 4/11/3 3/12/3
f 16/13/4 11/14/4 1/15/4 4/16/4
f 1/17/2 2/18/2 3/19/2 4/20/2
f 8/21/5 7/22/5 6/23/5 5/24/5
f 5/25/1 6/26/1 9/27/1 12/28/1
f 18/29/1 17/30/1 10/2/1 11/1/1
f 2/3/1 10/2/1 26/31/1 21/32/1
f 17/33/6 19/34/6 14/35/6 10/36/6
f 7/37/3 8/38/3 15/39/3 13/40/3
f 19/41/3 20/42/3 16/10/3 14/9/3
f 8/43/4 5/44/4 12/45/4 15/46/4
f 20/47/4 18/48/4 11/14/4 16/13/4
f 12/28/1 9/27/1 17/30/1 18/29/1
f 9/49/6 13/50/6 19/34/6 17/33/6
f 13/40/3 15/39/3 20/42/3 19/41/3
f 15/46/4 12/45/4 18/48/4 20/47/4
f 23/51/5 24/52/5 32/53/5 31/54/5
f 27/8/2 25/7/2 33/55/2 35/56/2
f 14/9/3 3/12/3 22/57/3 28/58/3
f 9/27/1 6/26/1 23/59/1 25/60/1
f 6/23/5 7/22/5 24/52/5 23/51/5
f 7/37/3 13/40/3 27/61/3 24/62/3
f 10/63/5 14/64/5 28/65/5 26/66/5
f 3/19/2 2/18/2 21/67/2 22/68/2
f 34/69/5 36/70/5 44/71/5 42/72/5
f 29/73/1 34/74/1 42/75/1 37/76/1
f 22/68/2 21/67/2 29/77/2 30/78/2
f 24/62/3 27/61/3 35/79/3 32/80/3
f 21/32/1 26/31/1 34/74/1 29/73/1
f 26/66/5 28/65/5 36/70/5 34/69/5
f 28/58/3 22/57/3 30/81/3 36/82/3
f 25/60/1 23/59/1 31/83/1 33/84/1
f 38/85/2 37/86/2 45/87/2 46/88/2
f 39/89/5 40/90/5 48/91/5 47/92/5
f 36/82/3 30/81/3 38/93/3 44/94/3
f 33/84/1 31/83/1 39/95/1 41/96/1
f 35/56/2 33/55/2 41/97/2 43/98/2
f 31/54/5 32/53/5 40/90/5 39/89/5
f 30/78/2 29/77/2 37/86/2 38/85/2
f 32/80/3 35/79/3 43/99/3 40/100/3
f 49/101/1 47/102/1 55/103/1 57/104/1
f 52/105/3 46/106/3 54/107/3 60/108/3
f 40/100/3 43/99/3 51/109/3 48/110/3
f 37/76/1 42/75/1 50/111/1 45/112/1
f 42/72/5 44/71/5 52/113/5 50/114/5
f 44/94/3 38/93/3 46/106/3 52/105/3
f 41/96/1 39/95/1 47/102/1 49/101/1
f 43/98/2 41/97/2 49/115/2 51/116/2
f 56/117/3 59/118/3 67/119/3 64/120/3
f 54/121/2 53/122/2 61/123/2 62/124/2
f 51/116/2 49/115/2 57/125/2 59/126/2
f 47/92/5 48/91/5 56/127/5 55/128/5
f 46/88/2 45/87/2 53/122/2 54/121/2
f 48/110/3 51/109/3 59/118/3 56/117/3
f 45/112/1 50/111/1 58/129/1 53/130/1
f 50/114/5 52/113/5 60/131/5 58/132/5
f 66/133/6 68/134/6 62/135/6 61/136/6
f 63/137/6 64/138/6 67/139/6 65/140/6
f 53/130/1 58/129/1 66/141/1 61/142/1
f 58/132/5 60/131/5 68/143/5 66/144/5
f 60/108/3 54/107/3 62/145/3 68/146/3
f 57/104/1 55/103/1 63/147/1 65/148/1
f 59/126/2 57/125/2 65/149/2 67/150/2
f 55/128/5 56/127/5 64/151/5 63/152/5
f 67/139/6 68/134/6 66/133/6 65/140/6
f 57/153/4 58/154/4 60/155/4 59/156/4
f 57/104/1 65/148/1 66/141/1 58/129/1
f 60/108/3 68/146/3 67/119/3 59/118/3
f 41/96/1 49/101/1 50/111/1 42/75/1
f 41/157/4 42/158/4 44/159/4 43/160/4
f 49/161/6 51/162/6 52/163/6 50/164/6
f 43/99/3 44/94/3 52/105/3 51/109/3
f 26/31/1 25/60/1 33/84/1 34/74/1
f 33/165/6 35/166/6 36/167/6 34/168/6
f 25/169/4 26/170/4 28/171/4 27/172/4
f 27/61/3 28/58/3 36/82/3 35/79/3
