# Blender v2.66 (sub 1) OBJ File: 'scene.blend'
# www.blender.org
mtllib woodenlogs.mtl
o Cube.027_Cube.030
v -4.351159 0.076815 -11.374693
v -4.345208 0.076815 -11.572384
v 0.138625 0.076815 -11.834794
v 0.199247 0.076815 -11.640997
v -4.351159 0.273821 -11.374693
v -4.345208 0.273821 -11.572384
v 0.138625 0.273821 -11.834794
v 0.199247 0.273821 -11.640997
v -4.372458 0.273821 -11.439228
v -4.361015 0.273821 -11.505679
v -4.361015 0.076815 -11.505679
v -4.372458 0.076815 -11.439228
v 0.191574 0.273821 -11.772111
v 0.160850 0.273821 -11.704532
v 0.160850 0.076815 -11.704532
v 0.191574 0.076815 -11.772111
v -0.091790 0.572151 -0.194051
v -0.093947 0.568882 -0.032300
v -3.725887 0.080161 0.234428
v -3.777654 0.076174 0.076637
v -0.113067 0.731879 -0.191107
v -0.115224 0.728609 -0.029355
v -3.747163 0.239888 0.237372
v -3.798931 0.235901 0.079581
v -0.094928 0.733326 -0.138575
v -0.103308 0.731206 -0.084095
v -0.082031 0.571479 -0.087039
v -0.073651 0.573599 -0.141519
v -3.790940 0.234990 0.186723
v -3.766942 0.239213 0.131096
v -3.745664 0.079486 0.128152
v -3.769663 0.075263 0.183779
v -1.373031 0.313789 2.043576
v -1.529105 0.310653 2.086122
v -2.797633 0.038518 -1.351575
v -2.660394 0.037613 -1.445162
v -1.379116 0.474497 2.033099
v -1.535189 0.471362 2.075644
v -2.803717 0.199227 -1.362052
v -2.666478 0.198322 -1.455639
v -1.424554 0.474865 2.065130
v -1.479254 0.473246 2.072061
v -1.473169 0.312537 2.082538
v -1.418469 0.314156 2.075607
v -2.767234 0.196938 -1.418350
v -2.707078 0.199728 -1.410497
v -2.700994 0.039019 -1.400021
v -2.761149 0.036230 -1.407873
v -2.433330 0.076815 2.258961
v -2.517140 0.076815 2.079816
v 1.366899 0.076815 -0.175811
v 1.508378 0.076815 -0.030156
v -2.433330 0.273821 2.258961
v -2.517140 0.273821 2.079816
v 1.366899 0.273821 -0.175811
v 1.508378 0.273821 -0.030156
v -2.481434 0.273821 2.210958
v -2.501178 0.273821 2.146485
v -2.501178 0.076815 2.146485
v -2.481434 0.076815 2.210958
v 1.442420 0.273821 -0.143731
v 1.445462 0.273821 -0.069557
v 1.445462 0.076815 -0.069557
v 1.442420 0.076815 -0.143731
vt 0.735763 0.724947
vt 0.725712 0.724798
vt 0.725608 0.690862
vt 0.735660 0.691011
vt 0.015510 0.789047
vt 0.017593 0.015510
vt 0.051541 0.015614
vt 0.049457 0.789152
vt 0.671933 0.725149
vt 0.660561 0.724833
vt 0.660457 0.690944
vt 0.671829 0.691260
vt 0.345036 0.787895
vt 0.344801 0.015510
vt 0.378730 0.015718
vt 0.378965 0.788103
vt 0.105882 0.018161
vt 0.117195 0.021566
vt 0.116514 0.794904
vt 0.105191 0.803358
vt 0.170845 0.015510
vt 0.182168 0.023964
vt 0.182847 0.797301
vt 0.171534 0.800706
vt 0.757721 0.725038
vt 0.746010 0.725074
vt 0.745906 0.691138
vt 0.757617 0.691103
vt 0.694589 0.725218
vt 0.683193 0.724751
vt 0.683089 0.690862
vt 0.694484 0.691329
vt 0.083251 0.018505
vt 0.094569 0.015510
vt 0.093881 0.797380
vt 0.082560 0.803324
vt 0.148214 0.015543
vt 0.159534 0.021487
vt 0.160221 0.803358
vt 0.148903 0.800363
vt 0.610921 0.783836
vt 0.601646 0.783635
vt 0.601650 0.755937
vt 0.610925 0.756137
vt 0.896798 0.639432
vt 0.897142 0.015510
vt 0.924909 0.015624
vt 0.924565 0.639546
vt 0.481577 0.748082
vt 0.481828 0.737910
vt 0.509455 0.737906
vt 0.509205 0.748078
vt 0.660457 0.657370
vt 0.661039 0.015510
vt 0.688803 0.015569
vt 0.688221 0.657429
vt 0.729077 0.655743
vt 0.719822 0.652998
vt 0.719990 0.022468
vt 0.729247 0.015544
vt 0.788201 0.657839
vt 0.778944 0.650916
vt 0.778777 0.020386
vt 0.788032 0.017641
vt 0.629435 0.783807
vt 0.620193 0.783991
vt 0.620196 0.756293
vt 0.629438 0.756109
vt 0.481840 0.766536
vt 0.482295 0.755861
vt 0.509922 0.755857
vt 0.509468 0.766532
vt 0.747587 0.655401
vt 0.738332 0.657874
vt 0.738501 0.020387
vt 0.747758 0.015510
vt 0.806712 0.657874
vt 0.797455 0.652997
vt 0.797286 0.015510
vt 0.806542 0.017982
vt 0.561107 0.755975
vt 0.570617 0.756036
vt 0.570627 0.783790
vt 0.561116 0.783729
vt 0.838008 0.655576
vt 0.837731 0.022764
vt 0.865501 0.022765
vt 0.865779 0.655577
vt 0.548108 0.719018
vt 0.540941 0.718593
vt 0.540956 0.690862
vt 0.548123 0.691287
vt 0.983691 0.015510
vt 0.984490 0.631420
vt 0.956728 0.631675
vt 0.955928 0.015765
vt 0.560430 0.017689
vt 0.569681 0.020484
vt 0.568718 0.652940
vt 0.559452 0.659843
vt 0.619211 0.015510
vt 0.628476 0.022413
vt 0.629438 0.654869
vt 0.620187 0.657664
vt 0.542742 0.756071
vt 0.551665 0.755937
vt 0.551675 0.783691
vt 0.542752 0.783825
vt 0.837853 0.015510
vt 0.865623 0.015511
vt 0.558450 0.718935
vt 0.558465 0.691204
vt 0.541919 0.017948
vt 0.551178 0.015510
vt 0.550204 0.654944
vt 0.540941 0.659795
vt 0.600700 0.015558
vt 0.609963 0.020409
vt 0.610935 0.659843
vt 0.601676 0.657405
vt 0.607254 0.724874
vt 0.595484 0.724809
vt 0.595588 0.690874
vt 0.607358 0.690939
vt 0.475660 0.706679
vt 0.475834 0.028390
vt 0.509781 0.028598
vt 0.509607 0.706887
vt 0.769519 0.756093
vt 0.780199 0.756135
vt 0.780303 0.790083
vt 0.769623 0.790040
vt 0.409984 0.769781
vt 0.410713 0.015822
vt 0.444641 0.015510
vt 0.443912 0.769469
vt 0.301956 0.018149
vt 0.313269 0.021542
vt 0.313782 0.795186
vt 0.302476 0.803656
vt 0.237010 0.015510
vt 0.248315 0.023980
vt 0.247801 0.797624
vt 0.236488 0.801017
vt 0.629334 0.724798
vt 0.618870 0.724918
vt 0.618975 0.690983
vt 0.629438 0.690862
vt 0.475975 0.015510
vt 0.509922 0.015718
vt 0.738396 0.790000
vt 0.725608 0.789981
vt 0.725712 0.756093
vt 0.738500 0.756112
vt 0.279334 0.018519
vt 0.290643 0.015510
vt 0.291161 0.797690
vt 0.279854 0.803649
vt 0.214388 0.015517
vt 0.225695 0.021476
vt 0.225175 0.803656
vt 0.213866 0.800647
vn -0.973050 0.000000 -0.230593
vn -0.058424 0.000000 -0.998292
vn 0.855845 0.000000 -0.517233
vn 0.058423 0.000000 0.998292
vn -0.000000 -1.000000 0.000000
vn 0.000000 1.000000 -0.000000
vn -0.949621 0.000000 0.313402
vn -0.985497 0.000000 -0.169692
vn 0.763928 0.000000 -0.645302
vn 0.910333 0.000000 0.413876
vn 0.968206 0.124979 0.216696
vn 0.074374 -0.008475 0.997194
vn -0.839700 -0.121612 0.529258
vn -0.074374 0.008475 -0.997195
vn 0.132020 -0.991079 -0.018269
vn -0.132020 0.991079 0.018270
vn 0.936010 0.130709 -0.326803
vn 0.979536 0.127613 0.155644
vn -0.746489 -0.111530 0.655984
vn -0.909070 -0.113707 -0.400826
vn 0.132020 -0.991079 -0.018270
vn -0.132020 0.991079 0.018269
vn 0.061538 0.067250 0.995836
vn -0.937756 -0.012878 0.347056
vn -0.742718 -0.071521 -0.665774
vn 0.937756 0.012877 -0.347056
vn 0.037753 -0.997170 0.065007
vn -0.037752 0.997170 -0.065007
vn 0.574965 0.074883 0.814744
vn 0.123376 0.069207 0.989944
vn -0.838551 -0.066997 -0.540688
vn 0.131922 -0.059511 -0.989472
vn 0.037752 -0.997170 0.065007
vn -0.972513 0.000000 0.232849
vn -0.502199 0.000000 -0.864752
vn 0.530759 0.000000 -0.847523
vn 0.502199 0.000000 0.864752
vn -0.706363 0.000000 0.707850
vn -0.956170 0.000000 0.292811
vn 0.390977 0.000000 -0.920400
vn 0.999161 0.000000 -0.040968
usemtl Material.005
s off
f 10/1/1 6/2/1 2/3/1 11/4/1
f 6/5/2 7/6/2 3/7/2 2/8/2
f 14/9/3 8/10/3 4/11/3 15/12/3
f 8/13/4 5/14/4 1/15/4 4/16/4
f 11/17/5 2/18/5 3/19/5 16/20/5
f 13/21/6 7/22/6 6/23/6 10/24/6
f 5/25/7 9/26/7 12/27/7 1/28/7
f 9/26/8 10/1/8 11/4/8 12/27/8
f 7/29/9 13/30/9 16/31/9 3/32/9
f 13/30/10 14/9/10 15/12/10 16/31/10
f 1/33/5 12/34/5 15/35/5 4/36/5
f 12/34/5 11/17/5 16/20/5 15/35/5
f 8/37/6 14/38/6 9/39/6 5/40/6
f 14/38/6 13/21/6 10/24/6 9/39/6
f 26/41/11 22/42/11 18/43/11 27/44/11
f 22/45/12 23/46/12 19/47/12 18/48/12
f 30/49/13 24/50/13 20/51/13 31/52/13
f 24/53/14 21/54/14 17/55/14 20/56/14
f 27/57/15 18/58/15 19/59/15 32/60/15
f 29/61/16 23/62/16 22/63/16 26/64/16
f 21/65/17 25/66/17 28/67/17 17/68/17
f 25/66/18 26/41/18 27/44/18 28/67/18
f 23/69/19 29/70/19 32/71/19 19/72/19
f 29/70/20 30/49/20 31/52/20 32/71/20
f 17/73/21 28/74/21 31/75/21 20/76/21
f 28/74/21 27/57/21 32/60/21 31/75/21
f 24/77/22 30/78/22 25/79/22 21/80/22
f 30/78/16 29/61/16 26/64/16 25/79/16
f 42/81/23 38/82/23 34/83/23 43/84/23
f 38/85/24 39/86/24 35/87/24 34/88/24
f 46/89/25 40/90/25 36/91/25 47/92/25
f 40/93/26 37/94/26 33/95/26 36/96/26
f 43/97/27 34/98/27 35/99/27 48/100/27
f 45/101/28 39/102/28 38/103/28 42/104/28
f 37/105/29 41/106/29 44/107/29 33/108/29
f 41/106/30 42/81/30 43/84/30 44/107/30
f 39/86/31 45/109/31 48/110/31 35/87/31
f 45/111/32 46/89/32 47/92/32 48/112/32
f 33/113/33 44/114/33 47/115/33 36/116/33
f 44/114/27 43/97/27 48/100/27 47/115/27
f 40/117/28 46/118/28 41/119/28 37/120/28
f 46/118/28 45/101/28 42/104/28 41/119/28
f 58/121/34 54/122/34 50/123/34 59/124/34
f 54/125/35 55/126/35 51/127/35 50/128/35
f 62/129/36 56/130/36 52/131/36 63/132/36
f 56/133/37 53/134/37 49/135/37 52/136/37
f 59/137/5 50/138/5 51/139/5 64/140/5
f 61/141/6 55/142/6 54/143/6 58/144/6
f 53/145/38 57/146/38 60/147/38 49/148/38
f 57/146/39 58/121/39 59/124/39 60/147/39
f 55/126/40 61/149/40 64/150/40 51/127/40
f 61/151/41 62/152/41 63/153/41 64/154/41
f 49/155/5 60/156/5 63/157/5 52/158/5
f 60/156/5 59/137/5 64/140/5 63/157/5
f 56/159/6 62/160/6 57/161/6 53/162/6
f 62/160/6 61/141/6 58/144/6 57/161/6
